<svg xmlns="http://www.w3.org/2000/svg" version="1.1" xmlns:xlink="http://www.w3.org/1999/xlink" xmlns:svgjs="http://svgjs.dev/svgjs" viewBox="0 0 1920 1080"><rect width="1920" height="1080" fill="#ffb6b9"></rect><g transform="matrix(7.04171909509728e-17,1.15,-1.15,7.04171909509728e-17,1546.7944030761719,-524.6635635375976)"><path d="M0,-1080C-10.887806015213535,-1002.9714313848069,-63.829367490091805,-739.6733723069924,-65.32683609128121,-617.8285883088419C-66.8243046924706,-495.98380431069137,-10.78560147339718,-475.7623133435456,-8.984811607136407,-348.93129601109706C-7.184021740875633,-222.10027867864852,-45.20772065259785,-0.8733366161873732,-54.522096893716565,143.15751568584952C-63.83647313483528,287.1883679878864,-73.92336317976785,372.09801302689937,-64.87106905384871,515.2538178011242C-55.81877492792959,658.4096225753491,-19.200424404201943,863.897937760381,-0.20833213820179708,1002.0923443311987C18.78376012779835,1140.2867509020164,55.218370968967605,1213.0805309706986,49.08148454215217,1344.4202572260308C42.94459811533673,1475.759983481363,-28.84940327540238,1654.2007447341973,-37.02965069909441,1790.1307018631921C-45.20989812278644,1926.060658992187,-6.171608449849068,2098.3551169771986,0,2160L 1920 2160 L 1920 -1080 Z" fill="url(&quot;#SvgjsLinearGradient1275&quot;)"></path><path d="M192,-1080C185.7163764731725,-935.8515981022871,161.99223554010413,-487.4660834750597,154.298258839035,-215.10958861372265C146.60428213796584,57.24690624761436,152.44590795213796,293.55077279923097,145.83613979358512,554.1389691680222C139.22637163503228,814.7271655368133,106.94567318664875,1080.7760844603617,114.6396498877179,1348.4195895990247C122.33362658878704,1616.0630947376876,179.10660831461965,2024.7365982665042,192,2160L 1920 2160 L 1920 -1080 Z" fill="url(&quot;#SvgjsLinearGradient1276&quot;)"></path><path d="M384,-1080C385.1644199869975,-1001.1593758567637,401.0145347814719,-763.6091524036658,390.9865199219848,-606.9562551405825C380.95850506249764,-450.30335787749914,327.96178379740223,-280.6861007968024,323.831910843077,-140.08261642149972C319.7020378887518,0.5208679538029912,350.0567760068227,85.52043770892598,366.20728219603353,236.66465111123387C382.35778838524436,387.8088645135417,427.19275223696854,607.00037882817,420.734947978342,766.7826639923477C414.27714371971547,926.5649491565254,328.50827879869996,1047.2253724440443,327.46045664427425,1195.3583620963C326.41263448984853,1343.4913517485556,405.0247578258333,1494.8069955885978,414.4480150517876,1655.5806019058812C423.87127227774187,1816.3542082231645,389.0746691752979,2075.930100317647,384,2160L 1920 2160 L 1920 -1080 Z" fill="url(&quot;#SvgjsLinearGradient1277&quot;)"></path><path d="M576,-1080C585.4554641548734,-971.0364999741721,620.63989334289,-644.3833459693706,632.7327849292406,-426.2189998450326C644.8256765155911,-208.05465372069466,670.5957671658698,1.7539336128825482,648.5573495181034,228.98607674602775C626.5189318703369,456.2182198791729,514.6866512476959,731.3955255362007,500.5022790426418,937.1738589538386C486.31790683758777,1142.9521923714765,550.8681627948862,1259.851720410828,563.4511162877792,1463.6560772518549C576.0340697806722,1667.4604340928818,573.9085193812965,2043.9426795419758,576,2160L 1920 2160 L 1920 -1080 Z" fill="url(&quot;#SvgjsLinearGradient1278&quot;)"></path><path d="M768,-1080C761.0857579624711,-988.6117998103305,739.0612357770888,-702.8393799614847,726.5145477748267,-531.670798861983C713.9678597725647,-360.50221776248134,693.2827228126351,-237.0146814272073,692.7198719864278,-52.988513402989874C692.1570211602206,131.03765462122757,717.2307419932661,390.124472639587,723.1374428175828,572.4862092833216C729.0441436418996,754.8479459270562,729.7575585588831,856.9759864149303,728.1600769323288,1041.1819064594176C726.5625953057745,1225.387826503905,706.9125658803115,1491.252047293482,713.5525530582566,1677.7217295502458C720.1925402362018,1864.1914118070094,758.9254255097094,2079.6202882583743,768,2160L 1920 2160 L 1920 -1080 Z" fill="url(&quot;#SvgjsLinearGradient1279&quot;)"></path><path d="M960,-1080C954.0669116997308,-1002.2814645755915,937.4363919696666,-768.7440458243268,924.4014701983849,-613.6887874535491C911.3665484271032,-458.6335290827715,868.1107474425025,-314.6519410878411,881.7904693723101,-149.66844977533373C895.4701913021177,15.315041537173698,994.9636637359563,227.74009951216203,1006.4798017772304,376.21216042149535C1017.9959398185044,524.6842213308287,950.6237814476247,610.130246859329,950.8872976199542,741.1639156806663C951.1508137922838,872.1975845020036,1011.7702965910988,989.6233735043616,1008.0608988112078,1162.4141733495194C1004.3515010313168,1335.2049731946772,936.6410607424762,1611.6444103098663,928.6309109406081,1777.9087147516132C920.6207611387401,1944.17301919336,954.7718184901014,2096.318119125269,960,2160L 1920 2160 L 1920 -1080 Z" fill="url(&quot;#SvgjsLinearGradient1280&quot;)"></path><path d="M1152,-1080C1145.0130306136227,-987.7024040286447,1113.4795735039274,-708.5067710193189,1110.0781836817362,-526.2144241718678C1106.676793859545,-343.9220773244167,1127.5259208779705,-150.97549918651146,1131.5916610668528,13.754081084706527C1135.657401255735,178.48366135592454,1135.8741855711107,293.3381032899737,1134.47262481503,462.1630574554402C1133.0710640589493,630.9880116209067,1115.0883388932996,831.9503376560382,1123.182296530369,1026.7038060775055C1131.2762541674385,1221.4572744989728,1178.2334200591747,1441.8011689971615,1183.0363706374465,1630.683867984244C1187.8393212157182,1819.5665669713264,1157.1727284395745,2071.7806446640407,1152,2160L 1920 2160 L 1920 -1080 Z" fill="url(&quot;#SvgjsLinearGradient1281&quot;)"></path><path d="M1344,-1080C1342.7232761021392,-1002.5890152282075,1341.9538005540057,-794.9687264109192,1336.3396566128354,-615.5340913692447C1330.725512671665,-436.09945632757024,1310.8213024087543,-198.17605931556037,1310.3151363529776,-3.3921897499533884C1309.8089702972009,191.3916798156536,1317.1114918372568,374.5399111314165,1333.3026602781747,553.169126024397C1349.4938287190926,731.7983409173775,1416.864845587672,881.5126056402803,1407.4621469984843,1068.3830996079294C1398.0594484092965,1255.2535935755784,1287.4634932427953,1492.4559397649462,1276.8864687430478,1674.3920898302913C1266.3094442433003,1856.3282398956364,1332.8144114571746,2079.0653483050487,1344,2160L 1920 2160 L 1920 -1080 Z" fill="url(&quot;#SvgjsLinearGradient1282&quot;)"></path><path d="M1536,-1080C1527.640124896331,-1018.5738624645725,1484.70103482829,-850.3332471328366,1485.8407493779853,-711.4431747874348C1486.9804639276806,-572.553102442033,1537.208956926891,-395.07928765447105,1542.8382872981717,-246.65956592758917C1548.4676176694525,-98.2398442007073,1520.8222326013456,53.56725446199249,1519.61673160567,179.07515557385648C1518.4112306099946,304.58305668572046,1544.2565388475036,369.0676264379406,1535.6052813241188,506.3878407435947C1526.954023800734,643.7080550492489,1457.717283449765,873.6561165989011,1467.7091864653605,1002.9964414077814C1477.701089480956,1132.3367662166615,1572.5356116029313,1165.9237473983958,1595.556699417691,1282.4297895968764C1618.5777872324509,1398.935831795357,1615.7618299235344,1555.7709928648105,1605.8357133539191,1702.0326945986644C1595.9095967843039,1848.2943963325183,1547.6392855589866,2083.672115766444,1536,2160L 1920 2160 L 1920 -1080 Z" fill="url(&quot;#SvgjsLinearGradient1283&quot;)"></path><path d="M1728,-1080C1722.7514998681465,-981.5238758847853,1709.3666575855812,-681.082886075251,1696.5089992088792,-489.1432553087115C1683.6513408321773,-297.2036245421719,1649.0564078719074,-106.07553775869366,1650.8540497397887,71.63778459923773C1652.65169160767,249.35110695716912,1703.7602186640593,400.07607668595483,1707.294850416167,577.1366788388768C1710.8294821682748,754.1972809917988,1666.0359151540354,971.8018681560794,1672.0618402524353,1134.0013975167697C1678.0877653508353,1296.20092687746,1734.1273743819727,1379.3340879224797,1743.4504010065668,1550.3338550030182C1752.773427631161,1721.3336220835567,1730.5750668344278,2058.3889758338364,1728,2160L 1920 2160 L 1920 -1080 Z" fill="url(&quot;#SvgjsLinearGradient1284&quot;)"></path></g><defs><linearGradient x1="0.1" y1="0" x2="0" y2="1" id="SvgjsLinearGradient1275"><stop stop-color="#ffb6b9" offset="0"></stop><stop stop-color="#ffb6c5" offset="0"></stop></linearGradient><linearGradient x1="0.1" y1="0" x2="0" y2="1" id="SvgjsLinearGradient1276"><stop stop-color="#ffc0c3" offset="0"></stop><stop stop-color="#ffc0cd" offset="0.1"></stop></linearGradient><linearGradient x1="0.1" y1="0" x2="0" y2="1" id="SvgjsLinearGradient1277"><stop stop-color="#ffcacc" offset="0"></stop><stop stop-color="#ffcad5" offset="0.2"></stop></linearGradient><linearGradient x1="0.1" y1="0" x2="0" y2="1" id="SvgjsLinearGradient1278"><stop stop-color="#ffd4d6" offset="0"></stop><stop stop-color="#ffd4dd" offset="0.3"></stop></linearGradient><linearGradient x1="0.1" y1="0" x2="0" y2="1" id="SvgjsLinearGradient1279"><stop stop-color="#ffdfe0" offset="0"></stop><stop stop-color="#ffdfe5" offset="0.4"></stop></linearGradient><linearGradient x1="0.1" y1="0" x2="0" y2="1" id="SvgjsLinearGradient1280"><stop stop-color="#ffe9ea" offset="0"></stop><stop stop-color="#ffe9ee" offset="0.5"></stop></linearGradient><linearGradient x1="0.1" y1="0" x2="0" y2="1" id="SvgjsLinearGradient1281"><stop stop-color="#fff3f3" offset="0"></stop><stop stop-color="#fff3f5" offset="0.6"></stop></linearGradient><linearGradient x1="0.1" y1="0" x2="0" y2="1" id="SvgjsLinearGradient1282"><stop stop-color="#fffdfd" offset="0"></stop><stop stop-color="#fffdfd" offset="0.7"></stop></linearGradient><linearGradient x1="0.1" y1="0" x2="0" y2="1" id="SvgjsLinearGradient1283"><stop stop-color="#ffffff" offset="0"></stop><stop stop-color="#ffffff" offset="0.8"></stop></linearGradient><linearGradient x1="0.1" y1="0" x2="0" y2="1" id="SvgjsLinearGradient1284"><stop stop-color="#ffffff" offset="0"></stop><stop stop-color="#ffffff" offset="0.9"></stop></linearGradient></defs></svg>