<svg xmlns="http://www.w3.org/2000/svg" version="1.1" xmlns:xlink="http://www.w3.org/1999/xlink" xmlns:svgjs="http://svgjs.dev/svgjs" viewBox="0 0 1920 1080"><rect width="1920" height="1080" fill="#1b3946"></rect><g transform="matrix(0.5750000000000001,0.9959292143521044,-0.9959292143521044,0.5750000000000001,930.7483284082174,-691.31635640266)"><path d="M0,-1080C9.699450444194639,-996.9684040784836,59.46482142671926,-727.8464972854719,58.196702665167834,-581.8104244709014C56.928583903616406,-435.77435165633085,13.88672919713827,-356.6136062617926,-7.6087125693085795,-203.7835631125768C-29.104154335755428,-50.95351996336095,-72.73535849572652,171.0085369055954,-70.77594793351327,335.16983442439374C-68.81653737130002,499.3311319431921,-2.4051523957744267,634.4771213047117,4.147750803970936,781.1842220002133C10.700654003716298,927.8913226957148,-21.077316736789037,1052.9472394924085,-31.458528735041085,1215.4124385974035C-41.839740733293134,1377.8776377023985,-63.382609308048195,1598.5441563964166,-58.13952118554135,1755.9754166301827C-52.8964330630345,1913.4066768639489,-9.689920197590224,2092.662569438364,0,2160L 1920 2160 L 1920 -1080 Z" fill="url(&quot;#SvgjsLinearGradient1258&quot;)"></path><path d="M160,-1080C171.16570748204146,-993.1225759239601,234.09630931659737,-724.0474480938386,226.99424489224882,-558.7354555437606C219.89218046790026,-393.4234629936826,128.74280643132656,-230.74371133035697,117.3876134539087,-88.12804469953198C106.03242047649084,54.487621931293006,150.9284658157409,154.56852471831996,158.8630870277417,296.9585442411893C166.7977082397425,439.34856376405867,156.81585702360567,604.2555183358493,164.99534072591348,766.2120724376841C173.17482442822129,928.168626539519,211.5096906791631,1104.3746315083188,207.93998924158856,1268.6978688521983C204.37028780401403,1433.0211061960779,151.56713030739763,1603.6011413096614,143.5771321004662,1752.1514965009617C135.58713389353477,1900.701851692262,157.2628553500777,2092.025249416827,160,2160L 1920 2160 L 1920 -1080 Z" fill="url(&quot;#SvgjsLinearGradient1259&quot;)"></path><path d="M320,-1080C308.7855902132838,-965.5072733834267,250.48713989889143,-617.3316547844989,252.71354127970272,-393.04364030055973C254.93994266051402,-168.75562581662055,315.36780874896823,65.50662013042293,333.35840828486783,265.72808690363513C351.34900782076744,465.94955367684736,375.34611684701946,610.0241173616864,360.6571384951003,808.2851603387135C345.96816014318114,1006.5462033157405,252.00072792253636,1230.008538155583,245.22453817335298,1455.2943447657974C238.4483484241696,1680.5801513760118,307.53742302889214,2042.5490574609662,320,2160L 1920 2160 L 1920 -1080 Z" fill="url(&quot;#SvgjsLinearGradient1260&quot;)"></path><path d="M480,-1080C490.61034203209596,-994.8535422490623,542.5710862687761,-758.7446352277155,543.6620521925756,-569.1212534943743C544.7530181163752,-379.497871761033,484.6636686620179,-131.7798606866201,486.54579554279724,57.7402904000474C488.42792242357655,247.2604414867149,561.2267685035379,398.6142336266447,554.9548134772515,567.9996530256307C548.6828584509651,737.3850724246166,468.16105963812055,906.6944804285281,448.91406538507863,1074.0528067939633C429.6670711320367,1241.4111331593986,434.2918588565132,1391.158412350569,439.4728479590001,1572.149611218242C444.65383706148697,1753.1408100859148,473.24547465983335,2062.0249352030405,480,2160L 1920 2160 L 1920 -1080 Z" fill="url(&quot;#SvgjsLinearGradient1261&quot;)"></path><path d="M640,-1080C627.996936710037,-963.5338759226013,566.2072290335587,-592.083812149452,567.9816202602217,-381.2032555356077C569.7560114868846,-170.3226989217634,634.972236197405,-20.772905508033006,650.6463473599778,185.2833396830658C666.3204585225506,391.33958487416464,652.9893902779413,645.0736982964723,662.0262872356587,855.1342156109852C671.0631841933762,1065.194732925498,708.5387769788917,1228.1688128386404,704.867729106282,1445.646443570143C701.1966812336723,1663.1240743016456,650.8112881843804,2040.9410739283571,640,2160L 1920 2160 L 1920 -1080 Z" fill="url(&quot;#SvgjsLinearGradient1262&quot;)"></path><path d="M800,-1080C794.8856934563731,-948.3043129626662,762.5898015107047,-569.0151429706066,769.3141607382387,-289.82587777599724C776.0385199657727,-10.636612581387851,841.7659312126033,326.30072495263914,840.346155365204,595.1355911676562C838.9263795178048,863.9704573826733,767.5198648813771,1062.3725847087146,760.7955056538431,1323.1833195141053C754.071146426309,1583.994054319496,793.4659176089739,2020.530553252351,800,2160L 1920 2160 L 1920 -1080 Z" fill="url(&quot;#SvgjsLinearGradient1263&quot;)"></path><path d="M960,-1080C954.1342954832977,-948.3767606262592,935.8420403298626,-570.2601899862257,924.8057728997865,-290.2605637575548C913.7695054697103,-10.260937528883858,888.4572259496747,322.57674220947223,893.7823954195434,599.9977573720256C899.1075648894121,877.4187725345789,945.7205222889227,1114.2651534464364,956.7567897189988,1374.2655272177656C967.7930571490749,1634.2659009890947,959.4594649531665,2029.0442545362944,960,2160L 1920 2160 L 1920 -1080 Z" fill="url(&quot;#SvgjsLinearGradient1264&quot;)"></path><path d="M1120,-1080C1108.2905566035731,-941.2462138573476,1043.541592525812,-508.60421867375015,1049.7433396214392,-247.4772831440855C1055.9450867170665,13.649652385579145,1157.1456478035684,230.56700110510877,1157.2104825737633,486.76161317798795C1157.2753173439582,742.9562252508672,1056.3340953382367,1010.8173248228543,1050.1323482426094,1289.6903892931896C1043.930601146982,1568.5634537635249,1108.3553913737683,2014.9483982155316,1120,2160L 1920 2160 L 1920 -1080 Z" fill="url(&quot;#SvgjsLinearGradient1265&quot;)"></path><path d="M1280,-1080C1277.581660015489,-941.5588512076484,1258.329053783484,-515.2713480386384,1265.4899600929346,-249.35310724589087C1272.6508664023852,16.56513354685663,1315.5888759589402,259.5887018283688,1322.9654378567034,515.509444756485C1330.3419997544665,771.4301876846012,1316.9102377889644,1012.0895911155538,1309.7493314795138,1286.1713503228063C1302.5884251700631,1560.2531095300587,1284.9582219132524,2014.3618917204676,1280,2160L 1920 2160 L 1920 -1080 Z" fill="url(&quot;#SvgjsLinearGradient1266&quot;)"></path><path d="M1440,-1080C1430.1272421751949,-944.8768879453858,1370.5443731398434,-549.7077928618471,1380.7634530511693,-269.26132767231474C1390.9825329624953,11.185137517217584,1485.545404595673,326.81276939034944,1501.3144794679554,602.6787911371938C1517.0835543402377,878.5448128840382,1485.5969821961887,1126.3812679982836,1475.3779022848628,1385.9348028087513C1465.1588223735369,1645.488337619219,1445.8963170474772,2030.9891338014586,1440,2160L 1920 2160 L 1920 -1080 Z" fill="url(&quot;#SvgjsLinearGradient1267&quot;)"></path><path d="M1600,-1080C1598.1775876677607,-1011.6800111548695,1593.5481019414915,-802.4799807562824,1589.0655260065641,-670.080066929217C1584.5829500716368,-537.6801531021515,1583.5132780978922,-418.0892580226405,1573.1045443904366,-285.6005170376076C1562.695810682981,-153.1117760525747,1532.707579662281,-11.908944281361627,1526.61312376183,124.85237898098033C1520.5186678613788,261.6137022433223,1533.505335049087,401.6062189695679,1536.5378089877304,534.9674225364441C1539.5702829263737,668.3286261033204,1523.1955321200965,795.5742842169302,1544.807967393689,925.0196003822376C1566.4204026672817,1054.464916547545,1660.6347841864806,1181.4443044162933,1666.2124206292865,1311.6393195282888C1671.7900570720924,1441.8343346402842,1589.309189488739,1564.7962443089243,1578.2737860505247,1706.1896910542096C1567.2383826123103,1847.5831377994948,1596.378964341754,2084.364948509035,1600,2160L 1920 2160 L 1920 -1080 Z" fill="url(&quot;#SvgjsLinearGradient1268&quot;)"></path><path d="M1760,-1080C1756.7601825512,-940.9143758375978,1752.4097696593117,-517.7919484859615,1740.5610953072,-245.48625502558673C1728.7124209550884,26.819438434788083,1673.7049422100818,290.6512876311941,1688.9079538873298,553.8341607622486C1704.1109655645778,817.0170338933032,1819.9304910185763,1065.9166772211152,1831.779165370688,1333.6109837607403C1843.6278397227995,1601.3052903003654,1771.963194228448,2022.2684972934567,1760,2160L 1920 2160 L 1920 -1080 Z" fill="url(&quot;#SvgjsLinearGradient1269&quot;)"></path></g><defs><linearGradient x1="0.1" y1="0" x2="0" y2="1" id="SvgjsLinearGradient1258"><stop stop-color="#1b3946" offset="0"></stop><stop stop-color="#1b4046" offset="0"></stop></linearGradient><linearGradient x1="0.1" y1="0" x2="0" y2="1" id="SvgjsLinearGradient1259"><stop stop-color="#254d5f" offset="0"></stop><stop stop-color="#25575f" offset="0.08333333333333333"></stop></linearGradient><linearGradient x1="0.1" y1="0" x2="0" y2="1" id="SvgjsLinearGradient1260"><stop stop-color="#2e6177" offset="0"></stop><stop stop-color="#2e6d77" offset="0.16666666666666666"></stop></linearGradient><linearGradient x1="0.1" y1="0" x2="0" y2="1" id="SvgjsLinearGradient1261"><stop stop-color="#387590" offset="0"></stop><stop stop-color="#388490" offset="0.25"></stop></linearGradient><linearGradient x1="0.1" y1="0" x2="0" y2="1" id="SvgjsLinearGradient1262"><stop stop-color="#4189a9" offset="0"></stop><stop stop-color="#419aa9" offset="0.3333333333333333"></stop></linearGradient><linearGradient x1="0.1" y1="0" x2="0" y2="1" id="SvgjsLinearGradient1263"><stop stop-color="#519bbc" offset="0"></stop><stop stop-color="#51adbc" offset="0.4166666666666667"></stop></linearGradient><linearGradient x1="0.1" y1="0" x2="0" y2="1" id="SvgjsLinearGradient1264"><stop stop-color="#69a9c5" offset="0"></stop><stop stop-color="#69b8c5" offset="0.5"></stop></linearGradient><linearGradient x1="0.1" y1="0" x2="0" y2="1" id="SvgjsLinearGradient1265"><stop stop-color="#82b8cf" offset="0"></stop><stop stop-color="#82c5cf" offset="0.5833333333333334"></stop></linearGradient><linearGradient x1="0.1" y1="0" x2="0" y2="1" id="SvgjsLinearGradient1266"><stop stop-color="#9bc6d8" offset="0"></stop><stop stop-color="#9bd0d8" offset="0.6666666666666666"></stop></linearGradient><linearGradient x1="0.1" y1="0" x2="0" y2="1" id="SvgjsLinearGradient1267"><stop stop-color="#b3d4e2" offset="0"></stop><stop stop-color="#b3dce2" offset="0.75"></stop></linearGradient><linearGradient x1="0.1" y1="0" x2="0" y2="1" id="SvgjsLinearGradient1268"><stop stop-color="#cce2eb" offset="0"></stop><stop stop-color="#cce7eb" offset="0.8333333333333334"></stop></linearGradient><linearGradient x1="0.1" y1="0" x2="0" y2="1" id="SvgjsLinearGradient1269"><stop stop-color="#e5f0f5" offset="0"></stop><stop stop-color="#e5f3f5" offset="0.9166666666666666"></stop></linearGradient></defs></svg>